<svg xmlns="http://www.w3.org/2000/svg" width="151" height="396" fill="none"><path fill="#9892A2" d="M114.298 389.706c0 3.142-3.387 5.8-7.741 5.8H46.325c-4.113 0-7.741-2.658-7.741-5.8 0-3.141 3.386-5.799 7.74-5.799h60.233c4.354 0 7.741 2.658 7.741 5.799Z" opacity=".2"/><path fill="#A59DAF" d="M79.464 321.075h-6.53V112.038c0-21.992-8.467-42.533-23.949-58l-20.319-20.54 4.596-4.592 20.32 20.541c16.69 16.675 25.882 38.908 25.882 62.591v209.037Z"/><path fill="#A59DAF" d="M79.463 321.075h-6.531V112.038c0-23.683 9.192-45.916 25.882-62.59l20.32-20.542 4.596 4.592-20.319 20.54c-15.482 15.467-23.948 36.008-23.948 58v209.037ZM38.824 32.048l-7.498 7.491c-2.42 2.417-6.048 2.417-8.467 0L1.814 18.515c-2.419-2.417-2.419-6.042 0-8.458l7.499-7.492c2.419-2.416 6.047-2.416 8.466 0L38.824 23.59c2.42 2.175 2.42 6.041 0 8.458Z"/><path fill="#fff" d="m31.81 32.773-4.354 4.35c-1.451 1.45-3.87.967-5.805-.967L5.2 19.723c-1.692-1.691-2.176-4.35-.967-5.8l4.354-4.35c1.452-1.45 3.87-.966 5.806.967l16.449 16.433c1.935 1.692 2.177 4.35.968 5.8Z"/><path fill="#A59DAF" d="m111.877 32.048 7.499 7.492c2.419 2.416 6.047 2.416 8.466 0l21.045-21.025c2.419-2.417 2.419-6.042 0-8.458l-7.499-7.492c-2.419-2.416-6.047-2.416-8.466 0L111.877 23.59c-2.177 2.175-2.177 6.041 0 8.458Z"/><path fill="#fff" d="m119.135 32.773 4.354 4.35c1.451 1.45 3.87.967 5.806-.967l16.449-16.433c1.693-1.691 2.177-4.35.967-5.8l-4.354-4.35c-1.451-1.45-3.87-.966-5.806.967l-16.449 16.433c-1.935 1.692-2.418 4.35-.967 5.8Z"/><path fill="#A59DAF" d="M88.655 379.557H63.498l3.87-87.723c.242-2.9 2.42-5.075 5.322-5.075h6.773c2.903 0 5.08 2.175 5.322 5.075l3.87 87.723Z"/><path fill="#A59DAF" d="M96.395 388.499H55.998v-3.867c0-2.9 2.419-5.317 5.322-5.317h29.753c2.903 0 5.322 2.417 5.322 5.317v3.867Z"/></svg>