<svg xmlns="http://www.w3.org/2000/svg" width="215" height="563" fill="none"><path fill="#EADFF8" d="M162.431 554.1c0 4.592-4.838 8.217-10.885 8.217H65.915c-6.048 0-10.886-3.625-10.886-8.217 0-4.591 4.838-8.216 10.886-8.216h85.631c6.047 0 10.885 3.625 10.885 8.216Z"/><path fill="#3C3C3B" d="M112.846 456.47h-9.434V158.743c0-31.174-12.095-60.415-34.107-82.648L40.277 46.854l6.532-6.525 29.027 29.24c23.706 23.925 36.768 55.583 36.768 89.174V456.47h.242Z"/><path fill="#3C3C3B" d="M112.844 456.47h-9.434V158.743c0-33.591 13.063-65.249 36.768-89.173l29.028-29.241 6.531 6.525-29.027 29.24c-22.013 21.992-34.108 51.475-34.108 82.649V456.47h.242ZM55.032 44.437 44.388 55.07c-3.387 3.383-8.708 3.383-11.853 0L2.54 25.345c-3.387-3.383-3.387-8.7 0-11.841L13.183 2.87c3.387-3.384 8.709-3.384 11.853 0l29.995 29.966a7.892 7.892 0 0 1 0 11.6Z"/><path fill="#FFF5C4" d="m44.872 45.646-6.29 6.283c-1.934 1.933-5.563 1.45-8.224-1.209L6.894 27.28c-2.66-2.659-3.144-6.284-1.21-8.217l6.29-6.283c1.935-1.934 5.564-1.45 8.225 1.208l23.463 23.441c2.661 2.658 3.145 6.283 1.21 8.217Z"/><path fill="#3C3C3B" d="m159.29 44.437 10.643 10.633c3.387 3.383 8.709 3.383 11.853 0l29.995-29.966c3.387-3.383 3.387-8.7 0-11.841L201.138 2.629c-3.386-3.383-8.708-3.383-11.853 0L159.29 32.595c-3.387 3.384-3.387 8.7 0 11.842Z"/><path fill="#FFF5C4" d="m169.449 45.645 6.289 6.284c1.935 1.933 5.564 1.45 8.224-1.209l23.464-23.44c2.661-2.659 3.145-6.284 1.21-8.217l-6.289-6.283c-1.936-1.934-5.564-1.45-8.225 1.208l-23.464 23.441c-2.661 2.658-3.145 6.283-1.209 8.216Z"/><path fill="#3C3C3B" d="M126.148 539.601h-35.8l5.563-124.939c.242-4.109 3.387-7.25 7.499-7.25h9.434c4.112 0 7.257 3.141 7.499 7.25l5.805 124.939ZM137.032 552.651H79.461v-5.558c0-4.109 3.386-7.492 7.499-7.492h42.574c4.112 0 7.498 3.383 7.498 7.492v5.558Z"/></svg>