<svg xmlns="http://www.w3.org/2000/svg" width="1586" height="631" fill="none"><path fill="#EADFF8" d="M1346.73 611.997c0 3.141-2.42 5.558-5.56 5.558h-23.71c-3.14 0-5.56-2.417-5.56-5.558 0-3.142 2.42-5.558 5.56-5.558h23.71c2.9 0 5.56 2.416 5.56 5.558ZM1585 326H0v85h1585v-85Z"/><path fill="#F4EBFF" d="M1585.15 359.231v-162.88h-11.37V64.887h-51.04v46.641h-3.39v5.558h-3.63v5.8h-5.56l-11.85 10.875v15.224h-7.5V42.655h-45.72v115.997l-31.69.242v-28.275h-14.27v-5.316h-1.45V72.621h-39.67v-.725h-1.21V54.978l-2.42-2.658h-41.37l-2.41 2.658v28.275h-1.21v32.866h1.21v30.207l-3.87-2.9-15.49-10.875-4.35 3.142v-2.175l-1.94 1.45v1.933l-7.25 5.075-7.26-5.075v-1.933l-1.93-1.45v2.175l-4.12-3.142-15.72 10.875-3.87 2.9V86.879l-2.18-2.659h-41.6l-2.18 2.659v16.916h-1.21v.966h-39.67v20.542h-1.45v5.316h-14.27v29.483l-17.18-10.15-14.75 8.7v-77.09h-45.72v67.423h-7.5v-15.224l-11.86-10.875h-5.56v-5.8h-3.63v-5.558h-3.14V96.303h-22.5v39.149h-37.492v59.932h-34.349v-13.291H924.77v13.291h-9.192v-24.407h-25.399v39.874h-26.85v-87.482h-28.544v72.499h-24.674V167.11h-14.997V95.337h-46.686v100.531h-22.98v-39.633l-32.656 41.083V226.8h-26.609v-77.815h-40.397v-41.324h-29.511v42.774h-15.723V53.288h-41.123v92.556H500v40.599h-19.11v28.033h-30.237v-87.24h-37.01v37.216h-17.416V25.738H363.57v42.05l-17.174 17.399v55.099h-28.544v24.166h-48.379V53.288h-38.22v64.523h-37.736V75.279h-24.915V.847h-46.928v163.605h-25.4V74.795h-51.04V200.46H0v158.772h1585.15Z"/><path fill="#E5DAF2" d="m1565.07 198.284-2.42 1.692v36.008l-3.87-1.692-15.48-6.525-4.36 1.933v-1.449l-1.93.966v1.208l-7.26 3.142-7.26-3.142v-1.208l-1.93-.966v1.449l-4.36-1.933-15.48 6.525-3.87 1.692v-18.367h1.21v-19.816h-1.21v-17.399l-2.42-1.692h-41.36l-2.42 1.692v10.391h-1.21v.483h-39.67v31.9h-1.45v3.141h-14.27v17.158l-31.93-.242v-90.381h-45.72v84.34h-7.5v-9.183l-11.85-6.525h-5.33v-3.625h-3.62v-3.142h-3.39v-28.274h-51.04v79.507h-17.9v-25.133l.97-.483c-.49-.242-.97-.484-1.45-.967-.73-.242-1.21-.725-1.7-.967-4.11-1.933-8.95-3.141-14.03-3.383h-3.87c-8.22 0-15.72 1.933-21.04 5.075h.48v25.616l-8.71 4.592-1.69-39.633h-7.74v-9.666h-3.63v-1.934h-3.39v-.725h-28.06v.725h-3.38v1.934h-3.39v31.174h-30.48v-.725h-1.93v.725h-8.95l-6.29 4.592v-64.524h-33.63v50.99h-31.44l-1.94.967v24.408c-15.722-6.042-32.654-7.008-50.797 0V231.15l-1.935-.966h-32.172l-1.935.966v7.009c-31.689.241-26.125.241-31.689.241v21.508h-.967v2.175h-11.127v11.6h-24.674v-60.899h-35.317v57.032h-5.805v-6.283l-9.192-4.35h-4.355v-2.416h-2.902v-2.175h-2.661V235.5h-39.671v53.649h-13.788v-16.916l.725-.242c-.483-.241-.725-.483-1.209-.483-.484-.242-.968-.483-1.451-.483-3.145-1.209-6.774-2.175-10.886-2.417h-2.903c-6.289 0-12.094 1.208-16.207 3.383h.242V289.149l-6.773 3.142-1.209-26.583h-6.048v-6.525h-2.903v-1.208h-2.66v-.483H658.44v.483h-2.661v1.208h-2.903v21.025H629.17v-.484h-1.451v.484h-6.047l-4.838 2.9v-43.499h-23.222v-40.841h-19.836l-2.419 1.45v30.932h-65.07v-47.849l-2.419-1.449h-40.88l-2.419 1.449v8.942h-.968v.483h-39.187v27.308h-1.452v2.658h-14.03v14.742h-31.446v-77.815h-45.235v72.74h-7.499v-7.975l-11.611-5.558h-5.563v-3.142h-3.629v-2.9h-3.386v-24.408h-50.557v68.632h-17.658v-21.024l.968-.484-1.452-.725c-.726-.241-1.209-.483-1.693-.725-3.87-1.691-8.708-2.658-13.788-2.9h-3.871c-7.982 0-15.481 1.692-20.803 4.35h.484v22.233l-8.466 3.867-1.694-34.074h-7.74v-8.459h-3.629v-1.691h-3.386v-.725h-27.576v.725h-3.387v1.691h-3.628v26.825H98.449v-.725h-1.693v.725h-8.708l-6.29 3.866v-55.582H48.378v165.055h985.483v-.967h551.29v-159.98h-20.08Z"/><path fill="#AAA3B5" d="M1249.87 70.446V51.113h-40.88v19.333l-16.2 32.382v256.403h73.29V102.828l-16.21-32.382Z"/><path fill="#B5ADC0" d="M1227.38 70.446h-40.88l-16.21 32.382v256.403h73.3V102.828l-16.21-32.382Z"/><path fill="#D6CDE4" d="M1227.38 51.113h-40.88v19.333h40.88V51.113Z"/><path fill="#fff" d="M1184.81 113.461h-7.5v10.875h7.5v-10.875Z"/><path fill="#D6CDE4" d="M1197.63 113.461h-7.5v10.875h7.5v-10.875ZM1210.69 113.461h-7.49v10.875h7.49v-10.875Z"/><path fill="#fff" d="M1223.76 113.461h-7.5v10.875h7.5v-10.875Z"/><path fill="#D6CDE4" d="M1236.82 113.461h-7.5v10.875h7.5v-10.875ZM1184.81 131.344h-7.5v10.875h7.5v-10.875ZM1197.63 131.344h-7.5v10.875h7.5v-10.875ZM1210.69 131.344h-7.5v10.875h7.5v-10.875ZM1223.75 131.344h-7.5v10.875h7.5v-10.875Z"/><path fill="#fff" d="M1236.82 131.344h-7.5v10.875h7.5v-10.875Z"/><path fill="#D6CDE4" d="M1184.81 148.985h-7.5v10.875h7.5v-10.875Z"/><path fill="#fff" d="M1197.63 148.986h-7.5v10.874h7.5v-10.874Z"/><path fill="#D6CDE4" d="M1210.69 148.986h-7.5v10.874h7.5v-10.874ZM1223.75 148.986h-7.5v10.874h7.5v-10.874ZM1236.82 148.986h-7.5v10.874h7.5v-10.874ZM1184.81 166.868h-7.5v10.875h7.5v-10.875ZM1197.63 166.869h-7.5v10.874h7.5v-10.874ZM1210.69 166.869h-7.5v10.874h7.5v-10.874Z"/><path fill="#fff" d="M1223.75 166.869h-7.5v10.874h7.5v-10.874Z"/><path fill="#D6CDE4" d="M1236.82 166.869h-7.5v10.874h7.5v-10.874ZM1184.81 184.51h-7.5v10.874h7.5V184.51Z"/><path fill="#fff" d="M1197.63 184.51h-7.5v10.875h7.5V184.51Z"/><path fill="#D6CDE4" d="M1210.69 184.51h-7.5v10.875h7.5V184.51ZM1223.75 184.51h-7.5v10.875h7.5V184.51ZM1236.82 184.51h-7.5v10.875h7.5V184.51ZM1184.81 202.393h-7.5v10.875h7.5v-10.875ZM1197.63 202.393h-7.5v10.875h7.5v-10.875ZM1210.69 202.393h-7.5v10.875h7.5v-10.875Z"/><path fill="#fff" d="M1223.75 202.393h-7.5v10.875h7.5v-10.875Z"/><path fill="#D6CDE4" d="M1236.82 202.393h-7.5v10.875h7.5v-10.875Z"/><path fill="#fff" d="M1184.81 220.034h-7.5v10.875h7.5v-10.875ZM1197.63 220.034h-7.5v10.875h7.5v-10.875Z"/><path fill="#D6CDE4" d="M1210.69 220.034h-7.5v10.875h7.5v-10.875Z"/><path fill="#fff" d="M1223.75 220.034h-7.5v10.875h7.5v-10.875Z"/><path fill="#D6CDE4" d="M1236.82 220.034h-7.5v10.875h7.5v-10.875ZM1184.81 237.918h-7.5v10.875h7.5v-10.875ZM1197.63 237.917h-7.5v10.875h7.5v-10.875Z"/><path fill="#fff" d="M1210.69 237.917h-7.5v10.875h7.5v-10.875Z"/><path fill="#D6CDE4" d="M1223.75 237.917h-7.5v10.875h7.5v-10.875Z"/><path fill="#fff" d="M1236.82 237.917h-7.5v10.875h7.5v-10.875Z"/><path fill="#D6CDE4" d="M1184.81 254.833h-7.5v10.875h7.5v-10.875Z"/><path fill="#fff" d="M1197.63 254.833h-7.5v10.875h7.5v-10.875Z"/><path fill="#D6CDE4" d="M1210.69 254.833h-7.49v10.875h7.49v-10.875Z"/><path fill="#fff" d="M1223.76 254.833h-7.5v10.875h7.5v-10.875Z"/><path fill="#D6CDE4" d="M1236.82 254.833h-7.5v10.875h7.5v-10.875ZM1184.81 272.716h-7.5v10.875h7.5v-10.875Z"/><path fill="#fff" d="M1197.63 272.716h-7.5v10.875h7.5v-10.875Z"/><path fill="#D6CDE4" d="M1210.69 272.716h-7.5v10.875h7.5v-10.875Z"/><path fill="#fff" d="M1223.75 272.716h-7.5v10.875h7.5v-10.875ZM1236.82 272.716h-7.5v10.875h7.5v-10.875Z"/><path fill="#D6CDE4" d="M1184.81 290.357h-7.5v10.875h7.5v-10.875ZM1197.63 290.357h-7.5v10.875h7.5v-10.875Z"/><path fill="#fff" d="M1210.69 290.357h-7.5v10.875h7.5v-10.875Z"/><path fill="#D6CDE4" d="M1223.75 290.357h-7.5v10.875h7.5v-10.875ZM1236.82 290.357h-7.5v10.875h7.5v-10.875Z"/><path fill="#fff" d="M1184.81 308.241h-7.5v10.874h7.5v-10.874Z"/><path fill="#D6CDE4" d="M1197.63 308.241h-7.5v10.874h7.5v-10.874ZM1210.69 308.241h-7.5v10.874h7.5v-10.874ZM1223.75 308.241h-7.5v10.874h7.5v-10.874Z"/><path fill="#fff" d="M1236.82 308.241h-7.5v10.874h7.5v-10.874Z"/><path fill="#D6CDE4" d="M1184.81 325.882h-7.5v10.875h7.5v-10.875ZM1197.63 325.882h-7.5v10.875h7.5v-10.875Z"/><path fill="#fff" d="M1210.69 325.882h-7.5v10.875h7.5v-10.875ZM1223.75 325.882h-7.5v10.875h7.5v-10.875Z"/><path fill="#D6CDE4" d="M1236.82 325.882h-7.5v10.875h7.5v-10.875Z"/><path fill="#AAA3B5" d="M877.598 359.231V152.852l-16.207-32.624v-19.333h-40.88v19.333l-16.207 32.624v206.379h73.294Z"/><path fill="#B5ADC0" d="M855.345 359.231V152.852l-16.207-32.624h-40.88l-16.449 32.624v206.379h73.536Z"/><path fill="#D6CDE4" d="M839.138 100.895h-40.88v19.333h40.88v-19.333Z"/><path fill="#fff" d="M796.321 163.244h-7.499v10.874h7.499v-10.874Z"/><path fill="#D6CDE4" d="M809.384 163.244h-7.499v10.874h7.499v-10.874ZM822.445 163.244h-7.499v10.874h7.499v-10.874Z"/><path fill="#fff" d="M835.266 163.244h-7.498v10.874h7.498v-10.874Z"/><path fill="#D6CDE4" d="M848.329 163.244h-7.499v10.874h7.499v-10.874ZM796.321 181.127h-7.499v10.875h7.499v-10.875Z"/><path fill="#fff" d="M809.384 181.127h-7.499v10.874h7.499v-10.874Z"/><path fill="#D6CDE4" d="M822.445 181.127h-7.499v10.874h7.499v-10.874ZM835.266 181.127h-7.498v10.874h7.498v-10.874ZM848.329 181.127h-7.499v10.874h7.499v-10.874Z"/><path fill="#fff" d="M796.321 198.769h-7.499v10.874h7.499v-10.874Z"/><path fill="#D6CDE4" d="M809.384 198.768h-7.499v10.875h7.499v-10.875Z"/><path fill="#fff" d="M822.445 198.768h-7.499v10.875h7.499v-10.875ZM835.266 198.768h-7.498v10.875h7.498v-10.875Z"/><path fill="#D6CDE4" d="M848.329 198.768h-7.499v10.875h7.499v-10.875ZM796.321 216.651h-7.499v10.875h7.499v-10.875ZM809.384 216.651h-7.499v10.875h7.499v-10.875Z"/><path fill="#fff" d="M822.445 216.651h-7.499v10.875h7.499v-10.875Z"/><path fill="#D6CDE4" d="M835.266 216.651h-7.498v10.875h7.498v-10.875ZM848.329 216.651h-7.499v10.875h7.499v-10.875ZM796.321 234.292h-7.499v10.875h7.499v-10.875ZM809.384 234.292h-7.499v10.875h7.499v-10.875Z"/><path fill="#fff" d="M822.445 234.292h-7.499v10.875h7.499v-10.875Z"/><path fill="#D6CDE4" d="M835.266 234.292h-7.498v10.875h7.498v-10.875ZM848.329 234.292h-7.499v10.875h7.499v-10.875ZM796.321 252.175h-7.499v10.875h7.499v-10.875Z"/><path fill="#fff" d="M809.384 252.175h-7.499v10.875h7.499v-10.875Z"/><path fill="#D6CDE4" d="M822.445 252.175h-7.499v10.875h7.499v-10.875ZM835.266 252.175h-7.498v10.875h7.498v-10.875Z"/><path fill="#fff" d="M848.329 252.175h-7.499v10.875h7.499v-10.875ZM796.321 270.059h-7.499v10.875h7.499v-10.875Z"/><path fill="#D6CDE4" d="M809.384 270.058h-7.499v10.875h7.499v-10.875ZM822.445 270.058h-7.499v10.875h7.499v-10.875ZM835.266 270.058h-7.498v10.875h7.498v-10.875Z"/><path fill="#fff" d="M848.329 270.058h-7.499v10.875h7.499v-10.875Z"/><path fill="#D6CDE4" d="M796.321 287.7h-7.499v10.875h7.499V287.7ZM809.384 287.699h-7.499v10.875h7.499v-10.875Z"/><path fill="#fff" d="M822.445 287.699h-7.499v10.875h7.499v-10.875ZM835.266 287.699h-7.498v10.875h7.498v-10.875Z"/><path fill="#D6CDE4" d="M848.329 287.699h-7.499v10.875h7.499v-10.875ZM796.321 304.857h-7.499v10.875h7.499v-10.875Z"/><path fill="#fff" d="M809.384 304.857h-7.499v10.875h7.499v-10.875Z"/><path fill="#D6CDE4" d="M822.445 304.857h-7.499v10.875h7.499v-10.875ZM835.266 304.857h-7.498v10.875h7.498v-10.875ZM848.329 304.857h-7.499v10.875h7.499v-10.875ZM796.321 322.499h-7.499v10.875h7.499v-10.875ZM809.384 322.499h-7.499v10.875h7.499v-10.875Z"/><path fill="#fff" d="M822.445 322.499h-7.499v10.875h7.499v-10.875ZM835.266 322.499h-7.498v10.875h7.498v-10.875ZM848.329 322.499h-7.499v10.875h7.499v-10.875ZM796.321 340.381h-7.499v10.875h7.499v-10.875ZM809.384 340.381h-7.499v10.875h7.499v-10.875Z"/><path fill="#D6CDE4" d="M822.445 340.381h-7.499v10.875h7.499v-10.875ZM835.266 340.381h-7.498v10.875h7.498v-10.875ZM848.329 340.381h-7.499v10.875h7.499v-10.875ZM520.561 359.231h63.618V240.092l-63.618-33.108v152.247Z"/><path fill="#EDE3FC" d="M576.682 246.133h-48.621v5.8h48.621v-5.8Z"/><path fill="#fff" d="M576.682 257.975h-48.621v5.8h48.621v-5.8Z"/><path fill="#EDE3FC" d="M576.682 270.058h-48.621v5.8h48.621v-5.8Z"/><path fill="#fff" d="M576.682 282.141h-48.621v5.8h48.621v-5.8ZM576.682 293.982h-48.621v5.8h48.621v-5.8Z"/><path fill="#EDE3FC" d="M576.682 306.066h-48.621v5.8h48.621v-5.8ZM576.682 317.907h-48.621v5.8h48.621v-5.8ZM576.682 329.99h-48.621v5.8h48.621v-5.8ZM576.682 342.074h-48.621v5.8h48.621v-5.8Z"/><path fill="#B5ADC0" d="M520.56 206.984h-24.673v152.247h24.673V206.984Z"/><path fill="#D6CDE4" d="M1071.36 359.231h-63.62V240.092l63.62-33.108v152.247Z"/><path fill="#EDE3FC" d="M1063.86 246.133h-48.62v5.8h48.62v-5.8Z"/><path fill="#fff" d="M1063.86 257.974h-48.62v5.8h48.62v-5.8Z"/><path fill="#EDE3FC" d="M1063.86 270.058h-48.62v5.8h48.62v-5.8Z"/><path fill="#fff" d="M1063.86 282.141h-48.62v5.8h48.62v-5.8Z"/><path fill="#EDE3FC" d="M1063.86 293.982h-48.62v5.8h48.62v-5.8Z"/><path fill="#fff" d="M1063.86 306.065h-48.62v5.8h48.62v-5.8Z"/><path fill="#EDE3FC" d="M1063.86 317.906h-48.62v5.8h48.62v-5.8ZM1063.86 329.99h-48.62v5.799h48.62v-5.799ZM1063.86 342.073h-48.62v5.799h48.62v-5.799Z"/><path fill="#B5ADC0" d="M1096.03 206.984h-24.67v152.247h24.67V206.984Z"/><path fill="#D6CDE4" d="M970.247 359.231h-63.619V170.977l63.619-33.108v221.362Z"/><path fill="#fff" d="M962.747 240.092h-48.621v5.8h48.621v-5.8Z"/><path fill="#EDE3FC" d="M962.747 252.175h-48.621v5.8h48.621v-5.8ZM962.747 264.016h-48.621v5.8h48.621v-5.8Z"/><path fill="#fff" d="M962.747 276.1h-48.621v5.799h48.621V276.1ZM962.747 287.941h-48.621v5.8h48.621v-5.8Z"/><path fill="#EDE3FC" d="M962.747 300.024h-48.621v5.8h48.621v-5.8ZM962.747 180.16h-48.621v5.8h48.621v-5.8ZM962.747 192.243h-48.621v5.8h48.621v-5.8Z"/><path fill="#fff" d="M962.747 204.084h-48.621v5.8h48.621v-5.8Z"/><path fill="#EDE3FC" d="M962.747 216.167h-48.621v5.8h48.621v-5.8ZM962.747 228.009h-48.621v5.8h48.621v-5.8ZM962.747 312.107h-48.621v5.8h48.621v-5.8ZM962.747 323.948h-48.621v5.8h48.621v-5.8ZM962.747 336.032h-48.621v5.8h48.621v-5.8Z"/><path fill="#B5ADC0" d="M994.918 137.869h-24.673v221.362h24.673V137.869Z"/><path fill="#D6CDE4" d="M314.466 359.231h-63.618V170.977l63.618-33.108v221.362Z"/><path fill="#EDE3FC" d="M306.967 240.092h-48.621v5.8h48.621v-5.8Z"/><path fill="#fff" d="M306.967 252.175h-48.621v5.8h48.621v-5.8Z"/><path fill="#EDE3FC" d="M306.967 264.016h-48.621v5.8h48.621v-5.8ZM306.967 276.1h-48.621v5.799h48.621V276.1ZM306.967 287.941h-48.621v5.8h48.621v-5.8Z"/><path fill="#fff" d="M306.967 300.024h-48.621v5.8h48.621v-5.8ZM306.967 180.16h-48.621v5.8h48.621v-5.8Z"/><path fill="#EDE3FC" d="M306.967 192.243h-48.621v5.8h48.621v-5.8ZM306.967 204.084h-48.621v5.8h48.621v-5.8Z"/><path fill="#fff" d="M306.967 216.167h-48.621v5.8h48.621v-5.8Z"/><path fill="#EDE3FC" d="M306.967 228.009h-48.621v5.8h48.621v-5.8Z"/><path fill="#fff" d="M306.967 312.107h-48.621v5.8h48.621v-5.8ZM306.967 323.948h-48.621v5.8h48.621v-5.8Z"/><path fill="#EDE3FC" d="M306.967 336.032h-48.621v5.8h48.621v-5.8Z"/><path fill="#B5ADC0" d="M339.14 137.869h-24.673v221.362h24.673V137.869ZM1543.06 359.231h-63.38V188.618l63.38-34.074v204.687Z"/><path fill="#C6BDD2" d="M1496.61 239.367h-9.19v10.392h9.19v-10.392Z"/><path fill="#fff" d="M1509.43 239.367h-9.19v10.391h9.19v-10.391Z"/><path fill="#C6BDD2" d="M1522.5 239.367h-9.2v10.391h9.2v-10.391ZM1535.56 239.367h-9.19v10.391h9.19v-10.391ZM1496.61 253.625h-9.19v10.391h9.19v-10.391ZM1509.43 253.625h-9.19v10.391h9.19v-10.391Z"/><path fill="#fff" d="M1522.5 253.625h-9.2v10.391h9.2v-10.391Z"/><path fill="#C6BDD2" d="M1535.56 253.625h-9.19v10.391h9.19v-10.391ZM1496.61 267.883h-9.19v10.392h9.19v-10.392Z"/><path fill="#fff" d="M1509.43 267.883h-9.19v10.392h9.19v-10.392Z"/><path fill="#C6BDD2" d="M1522.5 267.883h-9.2v10.392h9.2v-10.392ZM1535.56 267.883h-9.19v10.392h9.19v-10.392Z"/><path fill="#fff" d="M1496.61 282.141h-9.19v10.391h9.19v-10.391Z"/><path fill="#C6BDD2" d="M1509.43 282.141h-9.19v10.391h9.19v-10.391ZM1522.5 282.141h-9.2v10.391h9.2v-10.391Z"/><path fill="#fff" d="M1535.56 282.141h-9.19v10.391h9.19v-10.391Z"/><path fill="#C6BDD2" d="M1496.61 296.399h-9.19v10.391h9.19v-10.391ZM1509.43 296.399h-9.19v10.391h9.19v-10.391ZM1522.5 296.399h-9.2v10.391h9.2v-10.391ZM1535.56 296.399h-9.19v10.391h9.19v-10.391ZM1496.61 310.657h-9.19v10.392h9.19v-10.392ZM1509.43 310.657h-9.19v10.392h9.19v-10.392ZM1522.5 310.657h-9.2v10.392h9.2v-10.392Z"/><path fill="#fff" d="M1535.56 310.657h-9.19v10.392h9.19v-10.392Z"/><path fill="#C6BDD2" d="M1496.61 324.915h-9.19v10.392h9.19v-10.392Z"/><path fill="#fff" d="M1509.43 324.915h-9.19v10.392h9.19v-10.392ZM1522.5 324.915h-9.2v10.392h9.2v-10.392Z"/><path fill="#C6BDD2" d="M1535.56 324.915h-9.19v10.392h9.19v-10.392ZM1496.61 339.173h-9.19v10.391h9.19v-10.391ZM1509.43 339.173h-9.19v10.391h9.19v-10.391ZM1522.5 339.173h-9.2v10.391h9.2v-10.391ZM1535.56 339.173h-9.19v10.391h9.19v-10.391Z"/><path fill="#fff" d="M1496.61 196.351h-9.19v10.392h9.19v-10.392Z"/><path fill="#C6BDD2" d="M1509.43 196.351h-9.19v10.392h9.19v-10.392ZM1522.5 196.351h-9.2v10.392h9.2v-10.392ZM1535.56 196.351h-9.19v10.392h9.19v-10.392ZM1496.61 210.609h-9.19V221h9.19v-10.391Z"/><path fill="#fff" d="M1509.43 210.609h-9.19V221h9.19v-10.391Z"/><path fill="#C6BDD2" d="M1522.5 210.609h-9.2V221h9.2v-10.391Z"/><path fill="#fff" d="M1535.56 210.609h-9.19V221h9.19v-10.391Z"/><path fill="#C6BDD2" d="M1496.61 225.109h-9.19V235.5h9.19v-10.391ZM1509.43 225.109h-9.19V235.5h9.19v-10.391ZM1522.5 225.109h-9.2V235.5h9.2v-10.391ZM1535.56 225.109h-9.19V235.5h9.19v-10.391Z"/><path fill="#AAA3B5" d="M1564.83 154.544h-21.77v204.687h21.77V154.544Z"/><path fill="#B5ADC0" d="M446.3 359.23h-88.292V121.436L446.3 73.828V359.23Z"/><path fill="#fff" d="M381.469 192.002h-13.063v14.499h13.063v-14.499Z"/><path fill="#C6BDD2" d="M399.609 192.001h-13.062v14.5h13.062v-14.5ZM417.754 192.001h-13.063v14.5h13.063v-14.5ZM435.896 192.001h-13.062v14.5h13.062v-14.5ZM381.469 211.817h-13.063v14.5h13.063v-14.5ZM399.609 211.817h-13.062v14.5h13.062v-14.5Z"/><path fill="#fff" d="M417.754 211.817h-13.063v14.5h13.063v-14.5Z"/><path fill="#C6BDD2" d="M435.896 211.817h-13.062v14.5h13.062v-14.5ZM381.469 231.875h-13.063v14.5h13.063v-14.5Z"/><path fill="#fff" d="M399.609 231.875h-13.062v14.5h13.062v-14.5Z"/><path fill="#C6BDD2" d="M417.754 231.875h-13.063v14.5h13.063v-14.5ZM435.896 231.875h-13.062v14.5h13.062v-14.5ZM381.469 251.691h-13.063v14.5h13.063v-14.5ZM399.609 251.691h-13.062v14.5h13.062v-14.5Z"/><path fill="#fff" d="M417.754 251.691h-13.063v14.5h13.063v-14.5ZM435.896 251.691h-13.062v14.5h13.062v-14.5Z"/><path fill="#C6BDD2" d="M381.469 271.507h-13.063v14.5h13.063v-14.5ZM399.609 271.507h-13.062v14.5h13.062v-14.5ZM417.754 271.507h-13.063v14.5h13.063v-14.5ZM435.896 271.507h-13.062v14.5h13.062v-14.5ZM381.469 291.565h-13.063v14.5h13.063v-14.5ZM399.609 291.565h-13.062v14.5h13.062v-14.5Z"/><path fill="#fff" d="M417.754 291.565h-13.063v14.5h13.063v-14.5Z"/><path fill="#C6BDD2" d="M435.896 291.565h-13.062v14.5h13.062v-14.5ZM381.469 311.382h-13.063v14.499h13.063v-14.499Z"/><path fill="#fff" d="M399.609 311.382h-13.062v14.499h13.062v-14.499Z"/><path fill="#C6BDD2" d="M417.754 311.382h-13.063v14.499h13.063v-14.499ZM435.896 311.382h-13.062v14.499h13.062v-14.499ZM381.469 331.198h-13.063v14.5h13.063v-14.5ZM399.609 331.198h-13.062v14.5h13.062v-14.5ZM417.754 331.198h-13.063v14.5h13.063v-14.5Z"/><path fill="#fff" d="M435.896 331.198h-13.062v14.5h13.062v-14.5ZM381.469 132.31h-13.063v14.5h13.063v-14.5Z"/><path fill="#C6BDD2" d="M399.609 132.31h-13.062v14.499h13.062V132.31ZM417.754 132.31h-13.063v14.499h13.063V132.31Z"/><path fill="#fff" d="M435.896 132.31h-13.062v14.499h13.062V132.31Z"/><path fill="#C6BDD2" d="M381.469 152.126h-13.063v14.5h13.063v-14.5ZM399.609 152.126h-13.062v14.5h13.062v-14.5Z"/><path fill="#fff" d="M417.754 152.126h-13.063v14.5h13.063v-14.5Z"/><path fill="#C6BDD2" d="M435.896 152.126h-13.062v14.5h13.062v-14.5ZM381.469 171.942h-13.063v14.5h13.063v-14.5ZM399.609 171.942h-13.062v14.5h13.062v-14.5Z"/><path fill="#fff" d="M417.754 171.942h-13.063v14.5h13.063v-14.5Z"/><path fill="#C6BDD2" d="M435.896 171.942h-13.062v14.5h13.062v-14.5Z"/><path fill="#AAA3B5" d="M476.78 73.828h-30.479V359.23h30.479V73.828Z"/><path fill="#B4ACBF" d="M1336.48 170.736h-40.16v188.496h40.16V170.736Z"/><path fill="#BCB4C8" d="M1422.84 170.735h-86.36v188.496h86.36V170.735Z"/><path fill="#EDE3FC" d="M1318.09 184.51h-7.74v8.941h7.74v-8.941ZM1318.09 214.476h-7.74v8.941h7.74v-8.941ZM1318.09 244.442h-7.74v8.941h7.74v-8.941Z"/><path fill="#fff" d="M1354.62 183.301h-12.82v12.083h12.82v-12.083ZM1371.07 183.301h-12.82v12.083h12.82v-12.083Z"/><path fill="#D6CDE4" d="M1387.28 183.301h-12.82v12.083h12.82v-12.083Z"/><path fill="#fff" d="M1403.48 183.301h-12.82v12.083h12.82v-12.083ZM1419.93 183.301h-12.82v12.083h12.82v-12.083ZM1354.62 213.026h-12.82v12.083h12.82v-12.083Z"/><path fill="#D6CDE4" d="M1371.07 213.026h-12.82v12.083h12.82v-12.083Z"/><path fill="#fff" d="M1387.28 213.026h-12.82v12.083h12.82v-12.083Z"/><path fill="#D6CDE4" d="M1403.48 213.026h-12.82v12.083h12.82v-12.083Z"/><path fill="#fff" d="M1419.93 213.026h-12.82v12.083h12.82v-12.083ZM1354.62 242.508h-12.82v12.083h12.82v-12.083ZM1371.07 242.508h-12.82v12.083h12.82v-12.083ZM1387.28 242.508h-12.82v12.083h12.82v-12.083Z"/><path fill="#D6CDE4" d="M1403.48 242.508h-12.82v12.083h12.82v-12.083Z"/><path fill="#fff" d="M1419.93 242.508h-12.82v12.083h12.82v-12.083Z"/><path fill="#EDE3FC" d="M1318.09 277.066h-7.74v8.941h7.74v-8.941ZM1318.09 307.032h-7.74v8.942h7.74v-8.942ZM1318.09 337.24h-7.74v8.941h7.74v-8.941Z"/><path fill="#fff" d="M1354.62 276.099h-12.82v12.084h12.82v-12.084Z"/><path fill="#D6CDE4" d="M1371.07 276.099h-12.82v12.084h12.82v-12.084ZM1387.28 276.099h-12.82v12.084h12.82v-12.084Z"/><path fill="#fff" d="M1403.48 276.099h-12.82v12.084h12.82v-12.084Z"/><path fill="#D6CDE4" d="M1419.93 276.099h-12.82v12.084h12.82v-12.084ZM1354.62 305.582h-12.82v12.083h12.82v-12.083Z"/><path fill="#fff" d="M1371.07 305.582h-12.82v12.083h12.82v-12.083ZM1387.28 305.582h-12.82v12.083h12.82v-12.083Z"/><path fill="#D6CDE4" d="M1403.48 305.582h-12.82v12.083h12.82v-12.083Z"/><path fill="#fff" d="M1419.93 305.582h-12.82v12.083h12.82v-12.083ZM1354.62 335.065h-12.82v12.083h12.82v-12.083ZM1371.07 335.065h-12.82v12.083h12.82v-12.083ZM1387.28 335.065h-12.82v12.083h12.82v-12.083ZM1403.48 335.065h-12.82v12.083h12.82v-12.083ZM1419.93 335.065h-12.82v12.083h12.82v-12.083Z"/><path fill="#B4ACBF" d="M129.657 170.736H89.502v188.496h40.155V170.736Z"/><path fill="#BCB4C8" d="M216.257 170.735H129.9v188.496h86.357V170.735Z"/><path fill="#EDE3FC" d="M111.514 184.51h-7.741v8.941h7.741v-8.941ZM111.514 214.476h-7.741v8.941h7.741v-8.941ZM111.514 244.442h-7.741v8.941h7.741v-8.941Z"/><path fill="#fff" d="M148.041 183.301h-12.82v12.083h12.82v-12.083ZM164.248 183.301h-12.82v12.083h12.82v-12.083Z"/><path fill="#D6CDE4" d="M180.455 183.301h-12.82v12.083h12.82v-12.083Z"/><path fill="#fff" d="M196.903 183.301h-12.821v12.083h12.821v-12.083ZM213.112 183.301h-12.821v12.083h12.821v-12.083ZM148.041 213.026h-12.82v12.083h12.82v-12.083Z"/><path fill="#D6CDE4" d="M164.248 213.026h-12.82v12.083h12.82v-12.083Z"/><path fill="#fff" d="M180.455 213.026h-12.82v12.083h12.82v-12.083ZM196.903 213.026h-12.821v12.083h12.821v-12.083ZM213.112 213.026h-12.821v12.083h12.821v-12.083ZM148.041 242.508h-12.82v12.083h12.82v-12.083Z"/><path fill="#D6CDE4" d="M164.248 242.508h-12.82v12.083h12.82v-12.083Z"/><path fill="#fff" d="M180.455 242.508h-12.82v12.083h12.82v-12.083Z"/><path fill="#D6CDE4" d="M196.903 242.508h-12.821v12.083h12.821v-12.083Z"/><path fill="#fff" d="M213.112 242.508h-12.821v12.083h12.821v-12.083Z"/><path fill="#EDE3FC" d="M111.514 277.066h-7.741v8.941h7.741v-8.941ZM111.514 307.032h-7.741v8.942h7.741v-8.942ZM111.514 337.24h-7.741v8.941h7.741v-8.941Z"/><path fill="#D6CDE4" d="M148.041 276.099h-12.82v12.084h12.82v-12.084Z"/><path fill="#fff" d="M164.248 276.099h-12.82v12.084h12.82v-12.084ZM180.455 276.099h-12.82v12.084h12.82v-12.084Z"/><path fill="#D6CDE4" d="M196.903 276.099h-12.821v12.084h12.821v-12.084Z"/><path fill="#fff" d="M213.112 276.099h-12.821v12.084h12.821v-12.084ZM148.041 305.582h-12.82v12.083h12.82v-12.083ZM164.248 305.582h-12.82v12.083h12.82v-12.083Z"/><path fill="#D6CDE4" d="M180.455 305.582h-12.82v12.083h12.82v-12.083Z"/><path fill="#fff" d="M196.903 305.582h-12.821v12.083h12.821v-12.083ZM213.112 305.582h-12.821v12.083h12.821v-12.083ZM148.041 335.065h-12.82v12.083h12.82v-12.083ZM164.248 335.065h-12.82v12.083h12.82v-12.083ZM180.455 335.065h-12.82v12.083h12.82v-12.083ZM196.903 335.065h-12.821v12.083h12.821v-12.083ZM213.112 335.065h-12.821v12.083h12.821v-12.083Z"/><path fill="#CFC6DC" d="M1475.81 308.482c0 4.592-4.11 8.217-9.19 8.217-5.08 0-9.19-3.625-9.19-8.217 0-4.591 4.11-8.216 9.19-8.216 5.08 0 9.19 3.625 9.19 8.216Z"/><path fill="#CFC6DC" d="M1482.34 319.84c0 6.284-7.02 11.358-15.72 11.358-8.71 0-15.73-5.074-15.73-11.358 0-6.283 7.02-11.358 15.73-11.358 8.7 0 15.72 5.075 15.72 11.358Z"/><path fill="#B4ACBF" d="M1453.8 316.457s9.19 3.142 12.09 3.867l.48-15.225.25 8.7c1.93-1.208 7.5-4.592 7.5-4.592s-5.81 5.317-7.5 6.767l.24 8.216c3.63-1.691 12.58-6.283 12.58-6.283s-10.16 7.008-12.34 8.7l1.21 32.624h-4.11l1.45-36.491c-.73-.483-11.85-6.283-11.85-6.283Z"/><path fill="#C2BACE" d="M1158.69 348.598c9.21 0 16.69-5.194 16.69-11.6 0-6.407-7.48-11.6-16.69-11.6-9.22 0-16.7 5.193-16.7 11.6 0 6.406 7.48 11.6 16.7 11.6Z"/><path fill="#C2BACE" d="M1170.54 322.74c0 6.283-5.32 11.6-12.1 11.6-6.77 0-12.09-5.075-12.09-11.6 0-6.283 5.32-11.6 12.09-11.6 6.54 0 12.1 5.075 12.1 11.6Z"/><path fill="#B4ACBF" d="m1172.23 330.715-12.58 6.283-.48-11.117c.48-.483 6.77-6.041 6.77-6.041s-4.84 3.142-6.77 4.591l-.49-12.808-.24 8.217c-1.45-.967-5.32-3.142-5.32-3.142s4.11 3.625 5.32 4.592l-.24 8.7c-2.9-1.45-9.92-5.075-9.92-5.075s8.23 6.766 9.92 7.975l-.24 8.458c-4.11-2.175-13.06-6.525-13.06-6.525s10.16 7.733 12.82 9.666l-.49 15.225h3.63l-.72-19.333c1.93-2.417 12.09-9.666 12.09-9.666Z"/><path fill="#BAB1C5" d="m1281.33 324.431-15.24 26.1h30.72l-15.48-26.1Z"/><path fill="#BAB1C5" d="m1281.32 313.557-14.03 23.924h28.06l-14.03-23.924Z"/><path fill="#BAB1C5" d="m1281.33 305.099-11.37 19.574h22.98l-11.61-19.574Z"/><path fill="#B4ACBF" d="m1281.33 311.14-1.7 48.09h3.63l-1.93-48.09Z"/><path fill="#BAB1C5" d="M1132.8 321.29c0 7.975-6.29 14.5-13.79 14.5-7.74 0-13.78-6.525-13.78-14.5s6.29-14.5 13.78-14.5c7.75 0 13.79 6.525 13.79 14.5Z"/><path fill="#B4ACBF" d="M1130.62 321.29s-8.22 2.658-10.64 3.625l-.48-13.533-.25 7.733c-1.69-.966-6.77-4.108-6.77-4.108s5.08 4.592 6.77 6.042l-.24 7.249c-3.14-1.691-11.12-5.558-11.12-5.558s8.95 6.283 11.12 7.733l-1.21 29h3.63l-1.21-32.625c.49-.483 10.4-5.558 10.4-5.558Z"/><path fill="#C2BACE" d="M736.092 348.598c9.218 0 16.691-5.194 16.691-11.6s-7.473-11.6-16.691-11.6-16.691 5.194-16.691 11.6 7.473 11.6 16.691 11.6Z"/><path fill="#C2BACE" d="M747.946 322.74c0 6.283-5.321 11.6-12.094 11.6s-12.095-5.075-12.095-11.6c0-6.525 5.322-11.6 12.095-11.6 6.531 0 12.094 5.075 12.094 11.6Z"/><path fill="#B4ACBF" d="m749.638 330.715-12.579 6.283-.483-11.117c.483-.483 6.773-6.041 6.773-6.041s-4.838 3.142-6.773 4.591l-.484-12.808-.242 8.217c-1.451-.967-5.322-3.142-5.322-3.142s4.112 3.625 5.322 4.592l-.242 8.7c-2.903-1.45-9.918-5.075-9.918-5.075s8.225 6.766 9.918 7.975l-.242 8.458c-4.112-2.175-13.062-6.525-13.062-6.525s10.159 7.733 12.82 9.666l-.484 15.225h3.629l-.726-19.333c1.935-2.417 12.095-9.666 12.095-9.666Z"/><path fill="#BAB1C5" d="m649.976 324.432-15.24 26.099h30.479l-15.239-26.099Z"/><path fill="#BAB1C5" d="m649.974 313.557-14.03 23.924h28.06l-14.03-23.924Z"/><path fill="#BAB1C5" d="m649.977 305.099-11.37 19.574h22.739l-11.369-19.574Z"/><path fill="#B4ACBF" d="m649.976 311.14-1.935 48.091h3.87l-1.935-48.091Z"/><path fill="#BAB1C5" d="M777.94 321.29c0 7.975-6.29 14.5-13.789 14.5-7.74 0-13.788-6.525-13.788-14.5s6.29-14.5 13.788-14.5c7.499 0 13.789 6.525 13.789 14.5Z"/><path fill="#B4ACBF" d="M775.523 321.29s-8.225 2.658-10.644 3.625l-.484-13.533-.242 7.733c-1.693-.966-6.773-4.108-6.773-4.108s5.08 4.592 6.773 6.042l-.242 7.249c-3.144-1.691-11.127-5.558-11.127-5.558s8.95 6.283 11.127 7.733l-1.209 29h3.628l-1.209-32.625c.484-.483 10.402-5.558 10.402-5.558Z"/><path fill="#BAB1C5" d="M603.29 336.998c0 5.316-6.289 9.666-13.788 9.666-7.741 0-13.788-4.35-13.788-9.666 0-5.317 6.289-9.667 13.788-9.667 7.499 0 13.788 4.35 13.788 9.667Z"/><path fill="#BAB1C5" d="M605.951 326.847c0 6.767-7.499 12.084-16.449 12.084-9.192 0-16.449-5.317-16.449-12.084 0-6.766 7.499-12.083 16.449-12.083 9.192 0 16.449 5.559 16.449 12.083Z"/><path fill="#BAB1C5" d="M599.177 315.973c0 3.867-4.354 7.008-9.676 7.008s-9.676-3.141-9.676-7.008 4.354-7.008 9.676-7.008 9.676 3.141 9.676 7.008Z"/><path fill="#B4ACBF" d="m578.133 331.922 10.159 5.075.484-11.116c-.484-.483-6.773-6.042-6.773-6.042s4.838 3.142 6.773 4.592l.484-12.808.242 8.216c1.451-.966 5.322-3.141 5.322-3.141s-4.113 3.625-5.322 4.591l.242 8.7c2.903-1.45 9.918-5.075 9.918-5.075s-8.225 6.767-9.918 7.975l.242 8.458c4.112-2.175 10.401-5.316 10.401-5.316s-7.499 6.283-10.159 8.216l.483 15.225h-3.628l.726-19.333c-2.177-2.175-9.676-8.217-9.676-8.217Z"/><path fill="#BAB1C5" d="m142.478 324.432-15.24 26.099h30.479l-15.239-26.099Z"/><path fill="#BAB1C5" d="m142.475 313.557-14.03 23.924h28.06l-14.03-23.924Z"/><path fill="#BAB1C5" d="m142.479 305.099-11.37 19.574h22.739l-11.369-19.574Z"/><path fill="#B4ACBF" d="m142.478 311.14-1.935 48.091h3.87l-1.935-48.091Z"/><path fill="#BAB1C5" d="M95.791 336.998c0 5.316-6.29 9.666-13.788 9.666-7.74 0-13.788-4.35-13.788-9.666 0-5.317 6.29-9.667 13.788-9.667 7.499 0 13.788 4.35 13.788 9.667Z"/><path fill="#BAB1C5" d="M98.453 326.848c0 6.766-7.5 12.083-16.45 12.083-9.191 0-16.448-5.317-16.448-12.083 0-6.767 7.498-12.083 16.449-12.083 9.192 0 16.449 5.558 16.449 12.083Z"/><path fill="#BAB1C5" d="M91.678 315.973c0 3.867-4.354 7.008-9.676 7.008s-9.676-3.141-9.676-7.008 4.354-7.008 9.676-7.008 9.676 3.141 9.676 7.008Z"/><path fill="#B4ACBF" d="m70.635 331.922 10.16 5.075.483-11.116c-.484-.483-6.773-6.042-6.773-6.042s4.838 3.142 6.773 4.592l.484-12.808.242 8.216c1.451-.966 5.322-3.141 5.322-3.141s-4.113 3.625-5.322 4.591l.242 8.7c2.903-1.45 9.918-5.075 9.918-5.075s-8.225 6.767-9.918 7.975l.242 8.458c4.112-2.175 10.401-5.316 10.401-5.316s-7.499 6.283-10.16 8.216l.484 15.225h-3.386l.725-19.333c-2.418-2.175-9.917-8.217-9.917-8.217Z"/><path fill="#BAB1C5" d="M906.387 336.998c0 5.316-6.289 9.666-13.788 9.666-7.499 0-13.788-4.35-13.788-9.666 0-5.317 6.289-9.667 13.788-9.667 7.499 0 13.788 4.35 13.788 9.667Z"/><path fill="#BAB1C5" d="M909.048 326.848c0 6.766-7.499 12.083-16.449 12.083-8.95 0-16.449-5.317-16.449-12.083 0-6.767 7.499-12.083 16.449-12.083 8.95 0 16.449 5.558 16.449 12.083Z"/><path fill="#BAB1C5" d="M902.034 315.973c0 3.867-4.354 7.008-9.676 7.008-5.321 0-9.675-3.141-9.675-7.008 0-3.866 4.354-7.008 9.675-7.008 5.322 0 9.676 3.142 9.676 7.008Z"/><path fill="#B4ACBF" d="m880.988 331.922 10.16 5.075.484-11.116c-.484-.483-6.773-6.042-6.773-6.042s4.838 3.142 6.773 4.592l.483-12.808.242 8.216c1.452-.966 5.322-3.141 5.322-3.141s-4.112 3.625-5.322 4.591l.242 8.7c2.903-1.45 9.918-5.075 9.918-5.075s-8.224 6.767-9.918 7.975l.242 8.458c4.112-2.175 10.402-5.316 10.402-5.316s-7.499 6.283-10.16 8.216l.484 15.225h-3.629l.726-19.333c-1.935-2.175-9.676-8.217-9.676-8.217Z"/><path fill="#BAB1C5" d="M952.105 336.998c0 5.316-6.289 9.666-13.788 9.666-7.74 0-13.788-4.35-13.788-9.666 0-5.317 6.29-9.667 13.788-9.667 7.741 0 13.788 4.35 13.788 9.667Z"/><path fill="#BAB1C5" d="M954.766 326.847c0 6.767-7.499 12.084-16.449 12.084-9.192 0-16.449-5.317-16.449-12.084 0-6.766 7.499-12.083 16.449-12.083 9.192 0 16.449 5.559 16.449 12.083Z"/><path fill="#BAB1C5" d="M947.992 315.973c0 3.867-4.354 7.008-9.675 7.008-5.322 0-9.676-3.141-9.676-7.008s4.354-7.008 9.676-7.008c5.321 0 9.675 3.141 9.675 7.008Z"/><path fill="#B4ACBF" d="m926.948 331.922 10.16 5.075.484-11.116c-.484-.483-6.773-6.042-6.773-6.042s4.838 3.142 6.773 4.592l.483-12.808.242 8.216c1.452-.966 5.322-3.141 5.322-3.141s-4.112 3.625-5.322 4.591l.242 8.7c2.903-1.45 9.918-5.075 9.918-5.075s-8.224 6.767-9.918 7.975l.242 8.458c4.112-2.175 10.402-5.316 10.402-5.316s-7.499 6.283-10.16 8.216l.484 15.225h-3.387l.726-19.333c-2.419-2.175-9.918-8.217-9.918-8.217Z"/><path fill="#BAB1C5" d="M998.065 336.998c0 5.316-6.289 9.666-13.788 9.666-7.74 0-13.788-4.35-13.788-9.666 0-5.317 6.29-9.667 13.788-9.667 7.499 0 13.788 4.35 13.788 9.667Z"/><path fill="#BAB1C5" d="M1000.73 326.848c0 6.766-7.503 12.083-16.453 12.083-9.192 0-16.449-5.317-16.449-12.083 0-6.767 7.499-12.083 16.449-12.083 8.95 0 16.453 5.558 16.453 12.083Z"/><path fill="#BAB1C5" d="M993.712 315.973c0 3.867-4.354 7.008-9.676 7.008s-9.676-3.141-9.676-7.008c0-3.866 4.354-7.008 9.676-7.008s9.676 3.142 9.676 7.008Z"/><path fill="#B4ACBF" d="m972.666 331.923 10.16 5.074.483-11.116c-.483-.483-6.773-6.041-6.773-6.041s4.838 3.141 6.773 4.591l.484-12.808.242 8.217c1.452-.967 5.322-3.142 5.322-3.142s-4.112 3.625-5.322 4.591l.242 8.7c2.903-1.45 9.918-5.075 9.918-5.075s-8.225 6.767-9.918 7.975l.242 8.458c4.112-2.175 10.402-5.316 10.402-5.316s-7.499 6.283-10.16 8.216l.484 15.225h-3.629l.726-19.333c-1.935-2.175-9.676-8.216-9.676-8.216Z"/><path fill="#BAB1C5" d="M1043.78 336.998c0 5.316-6.29 9.666-13.79 9.666-7.74 0-13.79-4.35-13.79-9.666 0-5.317 6.29-9.667 13.79-9.667 7.5 0 13.79 4.35 13.79 9.667Z"/><path fill="#BAB1C5" d="M1046.44 326.847c0 6.767-7.5 12.084-16.45 12.084-9.19 0-16.45-5.317-16.45-12.084 0-6.766 7.5-12.083 16.45-12.083 9.19 0 16.45 5.559 16.45 12.083Z"/><path fill="#BAB1C5" d="M1039.67 315.973c0 3.867-4.36 7.008-9.68 7.008-5.32 0-9.67-3.141-9.67-7.008s4.35-7.008 9.67-7.008 9.68 3.141 9.68 7.008Z"/><path fill="#B4ACBF" d="m1018.38 331.922 10.16 5.075.48-11.116c-.48-.483-6.77-6.042-6.77-6.042s4.84 3.142 6.77 4.592l.49-12.808.24 8.216c1.45-.966 5.32-3.141 5.32-3.141s-4.11 3.625-5.32 4.591l.24 8.7c2.9-1.45 9.92-5.075 9.92-5.075s-8.22 6.767-9.92 7.975l.24 8.458c4.12-2.175 10.41-5.316 10.41-5.316s-7.5 6.283-10.16 8.216l.48 15.225h-3.63l.73-19.333c-1.94-2.175-9.68-8.217-9.68-8.217Z"/><path fill="#BAB1C5" d="M1089.5 336.998c0 5.317-6.29 9.667-13.79 9.667-7.74 0-13.78-4.35-13.78-9.667 0-5.316 6.29-9.666 13.78-9.666 7.74 0 13.79 4.35 13.79 9.666Z"/><path fill="#BAB1C5" d="M1092.4 326.848c0 6.767-7.49 12.083-16.44 12.083-9.2 0-16.45-5.316-16.45-12.083 0-6.766 7.5-12.083 16.45-12.083s16.44 5.558 16.44 12.083Z"/><path fill="#BAB1C5" d="M1085.39 315.973c0 3.867-4.35 7.009-9.68 7.009-5.32 0-9.67-3.142-9.67-7.009 0-3.866 4.35-7.008 9.67-7.008 5.33 0 9.68 3.142 9.68 7.008Z"/><path fill="#B4ACBF" d="m1064.34 331.923 10.16 5.075.49-11.117c-.49-.483-6.77-6.041-6.77-6.041s4.83 3.141 6.77 4.591l.48-12.808.24 8.217c1.46-.967 5.33-3.142 5.33-3.142s-4.12 3.625-5.33 4.592l.25 8.7c2.9-1.45 9.91-5.075 9.91-5.075s-8.22 6.766-9.91 7.974l.24 8.459c4.11-2.175 10.4-5.317 10.4-5.317s-7.5 6.283-10.16 8.217l.48 15.224h-3.63l.73-19.333c-2.18-2.175-9.68-8.216-9.68-8.216Z"/><path fill="#CFC6DC" d="M637.155 299.299c0 5.316-4.838 9.666-10.885 9.666s-10.885-4.35-10.885-9.666c0-5.317 4.838-9.667 10.885-9.667s10.885 4.35 10.885 9.667Z"/><path fill="#CFC6DC" d="M644.653 312.59c0 7.25-8.224 13.292-18.384 13.292s-18.384-6.042-18.384-13.292 8.224-13.291 18.384-13.291 18.384 6.041 18.384 13.291Z"/><path fill="#B4ACBF" d="M611.029 308.724s10.886 3.625 14.272 4.591l.726-17.883.484 10.15c2.177-1.45 8.95-5.317 8.95-5.317s-6.773 6.284-8.708 7.975l.483 9.667c4.113-2.175 14.756-7.492 14.756-7.492s-11.853 8.217-14.756 10.15l1.452 38.424h-4.838l1.693-43.016c-1.451-.483-14.514-7.249-14.514-7.249Z"/><path fill="#CFC6DC" d="M247.698 299.299c0 5.317-4.838 9.667-10.885 9.667s-10.885-4.35-10.885-9.667 4.838-9.666 10.885-9.666 10.885 4.349 10.885 9.666Z"/><path fill="#CFC6DC" d="M255.44 312.59c0 7.25-8.224 13.292-18.384 13.292s-18.384-6.042-18.384-13.292 8.224-13.291 18.384-13.291 18.384 6.041 18.384 13.291Z"/><path fill="#B4ACBF" d="M221.574 308.724s10.886 3.625 14.272 4.591l.726-17.883.484 10.15c2.177-1.45 8.95-5.316 8.95-5.316s-6.773 6.283-8.709 7.975l.484 9.666c4.113-2.175 14.756-7.492 14.756-7.492s-11.853 8.217-14.756 10.15l1.452 38.424h-4.838l1.693-43.015c-1.209-.484-14.514-7.25-14.514-7.25Z"/><path fill="#EADFF8" d="M1585 454H0v98h1585v-98ZM589.351 589.523c0 9.424-7.499 16.916-16.933 16.916H228.925c-9.434 0-16.933-7.492-16.933-16.916 0-9.425 7.499-16.917 16.933-16.917H572.66c9.192 0 16.691 7.492 16.691 16.917ZM787.465 610.064c0 7.733-6.29 14.016-14.031 14.016H633.86c-7.741 0-14.03-6.283-14.03-14.016s6.289-14.016 14.03-14.016h139.574c7.741-.242 14.031 6.041 14.031 14.016ZM788.191 574.781c0 2.9-2.419 5.317-5.322 5.317h-23.948c-2.902 0-5.321-2.417-5.321-5.317 0-2.9 2.419-5.317 5.321-5.317h23.948c2.903 0 5.322 2.417 5.322 5.317ZM272.709 624.081c0 3.624-3.145 6.766-6.773 6.766h-20.804c-3.628 0-6.773-3.142-6.773-6.766 0-3.625 3.145-6.767 6.773-6.767h20.804c3.87 0 6.773 3.142 6.773 6.767ZM177.888 575.747c0 2.9-2.177 5.075-5.08 5.075h-10.16c-2.903 0-5.08-2.175-5.08-5.075 0-2.899 2.177-5.074 5.08-5.074h10.16c2.661 0 5.08 2.175 5.08 5.074ZM1092.5 599.914c0 9.666-7.99 17.641-17.66 17.641H886.643c-9.676 0-17.659-7.975-17.659-17.641 0-9.666 7.983-17.641 17.659-17.641h188.197c9.92 0 17.66 7.975 17.66 17.641ZM1163.86 606.439c0 3.866-3.15 7.008-7.02 7.008h-22.98a7.013 7.013 0 0 1-7.01-7.008 7.012 7.012 0 0 1 7.01-7.008h22.98c3.87 0 7.02 3.141 7.02 7.008ZM1430.91 587.831c0 6.766-5.32 12.083-12.09 12.083h-48.14c-6.77 0-12.1-5.317-12.1-12.083 0-6.767 5.33-12.083 12.1-12.083h48.14c6.77 0 12.09 5.316 12.09 12.083ZM203.77 617.555c0 6.766-5.321 12.083-12.094 12.083h-48.138c-6.773 0-12.095-5.317-12.095-12.083 0-6.767 5.322-12.083 12.095-12.083h48.138c6.531 0 12.094 5.558 12.094 12.083ZM1548 593.5c0 6.84-2.74 12.5-6.04 12.5h-49.92c-3.3 0-6.04-5.66-6.04-12.5s2.74-12.5 6.04-12.5h49.92c3.42 0 6.04 5.66 6.04 12.5Z"/></svg>