<svg xmlns="http://www.w3.org/2000/svg" width="1342" height="135" fill="none"><path fill="#F4EBFF" d="M1146.83 29.483c0 16.191-13.31 29.482-29.51 29.482-16.21 0-29.51-13.291-29.51-29.482 0-16.192 13.3-29.483 29.51-29.483 16.2 0 29.51 13.291 29.51 29.483ZM1334.3 70.082c-1.69 0-3.39.725-4.6 1.691-1.93-4.108-7.98-7.008-15-7.008-4.35 0-8.46 1.208-11.36 2.9-1.94-3.625-5.57-6.042-9.92-6.042-3.15 0-5.81 1.209-7.74 3.142-4.12-6.041-12.34-10.15-22.02-10.15-6.77 0-12.82 1.934-17.17 5.317-3.63-9.908-13.3-17.158-24.43-17.158-11.13 0-20.8 7.008-24.43 16.916-1.94-.966-3.87-1.45-6.05-1.45-7.98 0-14.51 6.525-14.51 14.5 0 1.45.24 2.658.48 3.867H1341.8v-.242c-.73-3.383-3.63-6.283-7.5-6.283ZM1020.32 61.865c-2.18 0-4.35.967-5.81 2.175-1.21-9.666-9.43-17.4-19.589-17.4-8.709 0-15.966 5.8-18.626 13.534-2.419-4.109-6.774-6.767-11.853-6.767-6.532 0-11.853 4.592-13.305 10.392-1.451-1.209-3.144-1.934-5.08-1.934-4.596 0-8.224 3.625-8.224 8.217 0 .966.242 1.933.484 2.658h90.713c.24-.725.48-1.692.48-2.658-.48-4.35-4.35-8.217-9.19-8.217ZM82.487 28.032c-2.177 0-4.354.967-5.806 2.175-1.21-9.666-9.434-17.4-19.593-17.4-8.709 0-15.966 5.8-18.626 13.534-2.42-4.108-6.774-6.767-11.853-6.767-6.532 0-11.853 4.592-13.305 10.392-1.451-1.209-3.144-1.934-5.08-1.934C3.628 28.032 0 31.657 0 36.25c0 .967.242 1.933.484 2.658h90.711c.242-.725.484-1.691.484-2.658-.484-4.35-4.354-8.217-9.192-8.217ZM453.797 77.331c-1.935 0-3.87.725-5.079 1.934-2.178-4.592-8.951-7.734-17.175-7.734-5.08 0-9.676 1.209-12.821 3.384-2.177-4.109-6.289-7.008-11.369-7.008-3.386 0-6.531 1.45-8.95 3.624-4.596-6.766-14.03-11.358-24.915-11.358-7.499 0-14.514 2.175-19.594 6.042-4.112-11.358-14.997-19.333-27.818-19.333-12.579 0-23.464 7.975-27.818 19.091-2.177-.966-4.354-1.45-7.015-1.45-9.192 0-16.449 7.492-16.449 16.433 0 1.45.242 2.9.726 4.35H460.812v-.241c.484-4.35-2.902-7.734-7.015-7.734ZM837.929 126.147c-2.177 0-4.112.967-5.564 2.175-2.419-4.833-9.676-8.458-18.384-8.458-5.563 0-10.401 1.45-13.788 3.625-2.419-4.35-7.015-7.492-12.337-7.492-3.628 0-7.015 1.45-9.675 3.867-4.838-7.25-14.998-12.325-26.851-12.325-8.225 0-15.723 2.417-21.045 6.525-4.596-12.325-16.207-21.024-29.995-21.024s-25.399 8.699-29.995 20.783c-2.177-.967-4.838-1.692-7.499-1.692-9.918 0-17.9 7.975-17.9 17.883 0 1.691.241 3.141.725 4.833h200.291v-.242c.241-4.833-3.387-8.458-7.983-8.458ZM681.179 35.766c-1.694 0-3.145.725-4.354 1.691-1.936-3.866-7.499-6.524-14.272-6.524-4.113 0-7.983.966-10.644 2.9-1.693-3.384-5.322-5.8-9.434-5.8-2.903 0-5.563 1.208-7.499 2.9-3.87-5.559-11.611-9.667-20.803-9.667-6.289 0-12.095 1.933-16.449 5.075-3.386-9.425-12.578-16.191-23.222-16.191-10.643 0-19.593 6.766-23.222 16.191a14.624 14.624 0 0 0-5.805-1.208c-7.741 0-13.788 6.283-13.788 13.774 0 1.209.241 2.417.483 3.625H687.468v-.241c0-3.625-2.903-6.525-6.289-6.525Z"/></svg>