<svg xmlns="http://www.w3.org/2000/svg" width="169" height="108" fill="none"><g filter="url(#a)"><path fill="#fff" d="M149.405.506h-130c-8.247 0-14.947 6.658-15 14.905l-.31 49c-.052 8.322 6.679 15.095 15 15.095H105l20 20 20-20h4.095c8.247 0 14.947-6.658 14.999-14.905l.31-49c.053-8.32-6.678-15.095-14.999-15.095Z"/><path fill="#1E0606" d="m25.96 29.74-2.991 4.766h-1.57l3.203-4.992c-.839-.265-1.448-.666-1.829-1.203-.38-.542-.57-1.224-.57-2.047 0-1.02.352-1.805 1.055-2.351.708-.553 1.779-.829 3.21-.829h3.141v11.422h-1.328v-4.765h-2.32Zm2.321-5.507h-1.773c-.953 0-1.677.164-2.172.492-.495.328-.742.862-.742 1.602 0 1.515.987 2.273 2.96 2.273h1.727v-4.367Zm15.383 3.86c0 .557-.161.981-.484 1.273-.318.286-.766.479-1.344.578v.07c.73.1 1.26.313 1.594.64.338.329.508.782.508 1.36 0 .797-.295 1.412-.883 1.844-.584.432-1.438.648-2.563.648H36.72v-8.562h3.758c2.125 0 3.187.716 3.187 2.148Zm-1.023 3.835c0-.463-.177-.8-.532-1.008-.349-.213-.93-.32-1.742-.32h-2.351v2.82h2.382c1.495 0 2.243-.497 2.243-1.492Zm-.243-3.71c0-.417-.161-.712-.484-.884-.318-.177-.802-.265-1.453-.265h-2.445v2.414h2.195c.802 0 1.367-.099 1.695-.297.328-.198.492-.52.492-.969Zm10.82 2c0 1.395-.35 2.486-1.054 3.273-.703.781-1.674 1.172-2.914 1.172-.766 0-1.445-.18-2.04-.54-.593-.359-1.051-.874-1.374-1.546-.323-.672-.484-1.459-.484-2.36 0-1.395.349-2.482 1.046-3.258.698-.78 1.667-1.171 2.907-1.171 1.198 0 2.148.398 2.851 1.195.709.797 1.063 1.875 1.063 3.234Zm-6.523 0c0 1.093.22 1.926.657 2.5.437.572 1.08.859 1.93.859.848 0 1.491-.284 1.929-.852.443-.573.664-1.409.664-2.508 0-1.088-.221-1.914-.664-2.476-.438-.568-1.086-.852-1.945-.852-.85 0-1.49.279-1.922.836-.433.557-.649 1.388-.649 2.492Zm16.196 0c0 1.395-.352 2.486-1.055 3.273-.703.781-1.675 1.172-2.914 1.172-.766 0-1.445-.18-2.04-.54-.593-.359-1.051-.874-1.374-1.546-.323-.672-.485-1.459-.485-2.36 0-1.395.35-2.482 1.047-3.258.698-.78 1.667-1.171 2.907-1.171 1.198 0 2.148.398 2.851 1.195.708.797 1.063 1.875 1.063 3.234Zm-6.524 0c0 1.093.219 1.926.656 2.5.438.572 1.081.859 1.93.859.85 0 1.492-.284 1.93-.852.442-.573.664-1.409.664-2.508 0-1.088-.221-1.914-.664-2.476-.438-.568-1.086-.852-1.946-.852-.848 0-1.49.279-1.921.836-.433.557-.649 1.388-.649 2.492Zm8.36-.845c0-1.875.276-3.335.828-4.382.552-1.052 1.427-1.709 2.625-1.969 1.49-.318 2.802-.575 3.937-.773l.242 1.14c-1.807.302-3.099.542-3.875.719-.755.172-1.322.578-1.703 1.219-.375.64-.58 1.513-.617 2.617h.094c.323-.438.74-.781 1.25-1.031a3.597 3.597 0 0 1 1.601-.375c1.053 0 1.873.34 2.461 1.023.589.682.883 1.628.883 2.836 0 1.338-.341 2.385-1.023 3.14-.683.75-1.633 1.126-2.852 1.126-1.203 0-2.146-.461-2.828-1.383-.682-.922-1.023-2.224-1.023-3.907Zm3.968 4.204c1.589 0 2.383-1.013 2.383-3.04 0-1.932-.721-2.898-2.164-2.898-.396 0-.779.084-1.148.25-.365.162-.7.378-1.008.649-.302.27-.537.55-.703.835 0 1.37.216 2.415.648 3.133.432.714 1.096 1.07 1.992 1.07Zm12.407-.188h3.796v-7.43h1.297v7.43h1.227v4.063h-1.313v-2.946H74.72V25.96h1.297v7.43h3.789v-7.43h1.297v7.43Zm11.593 1.274c-1.265 0-2.265-.386-3-1.157-.729-.77-1.093-1.84-1.093-3.21 0-1.38.338-2.477 1.015-3.29.682-.812 1.596-1.218 2.742-1.218 1.073 0 1.922.354 2.547 1.062.625.703.938 1.633.938 2.79v.82h-5.899c.026 1.005.279 1.768.758 2.288.484.521 1.164.782 2.04.782.921 0 1.833-.193 2.734-.578v1.156a6.632 6.632 0 0 1-1.305.422 7.048 7.048 0 0 1-1.477.133Zm-.351-7.79c-.688 0-1.237.224-1.649.672-.406.448-.645 1.068-.718 1.86h4.476c0-.818-.182-1.443-.547-1.875-.364-.438-.885-.657-1.562-.657Zm5 3.938v-1.188h3.836v1.188h-3.836Zm11.648-3.758h-2.781v7.453h-1.297v-7.453h-2.75v-1.11h6.828v1.11Zm9.086 3.164c0 1.396-.351 2.487-1.055 3.274-.703.781-1.674 1.172-2.914 1.172-.765 0-1.445-.18-2.039-.54-.593-.359-1.052-.874-1.375-1.546-.323-.672-.484-1.459-.484-2.36 0-1.395.349-2.482 1.047-3.258.698-.78 1.666-1.171 2.906-1.171 1.198 0 2.148.398 2.852 1.195.708.797 1.062 1.875 1.062 3.234Zm-6.523 0c0 1.094.218 1.927.656 2.5.437.573 1.081.86 1.93.86s1.492-.284 1.929-.852c.443-.573.664-1.409.664-2.508 0-1.088-.221-1.914-.664-2.476-.437-.568-1.086-.852-1.945-.852-.849 0-1.49.279-1.922.836-.432.557-.648 1.388-.648 2.492Zm14.257-4.273v3.586h4.797v-3.586h1.297v8.562h-1.297v-3.859h-4.797v3.86h-1.296v-8.563h1.296Zm12.461 8.719c-1.265 0-2.265-.386-3-1.157-.729-.77-1.093-1.84-1.093-3.21 0-1.38.338-2.477 1.015-3.29.683-.812 1.597-1.218 2.743-1.218 1.072 0 1.921.354 2.546 1.062.625.703.938 1.633.938 2.79v.82h-5.899c.026 1.005.279 1.768.758 2.288.485.521 1.164.782 2.039.782a6.9 6.9 0 0 0 2.735-.578v1.156a6.655 6.655 0 0 1-1.305.422 7.044 7.044 0 0 1-1.477.133Zm-.351-7.79c-.688 0-1.237.224-1.649.672-.406.448-.645 1.068-.718 1.86h4.476c0-.818-.182-1.443-.547-1.875-.364-.438-.885-.657-1.562-.657ZM24.008 51.498c1.62 0 2.43-.447 2.43-1.343 0-.844-.657-1.266-1.97-1.266-.4 0-.765.037-1.093.11-.328.072-.758.218-1.29.437l-.46-1.055c.885-.395 1.852-.593 2.898-.593.985 0 1.76.203 2.329.609.567.401.851.95.851 1.648 0 .959-.534 1.586-1.601 1.883v.063c.656.192 1.135.468 1.437.828.302.354.453.8.453 1.336 0 .791-.32 1.409-.96 1.851-.636.438-1.516.657-2.641.657-1.235 0-2.188-.185-2.86-.555V54.92c.953.448 1.917.672 2.89.672.75 0 1.316-.127 1.696-.383.386-.26.578-.632.578-1.117 0-.995-.81-1.492-2.43-1.492h-1.187v-1.102h.93Zm11.367 5.008-.258-1.218h-.062c-.427.536-.855.9-1.282 1.093-.421.188-.95.282-1.586.282-.848 0-1.515-.22-2-.657-.479-.437-.718-1.06-.718-1.867 0-1.729 1.383-2.635 4.148-2.719l1.453-.047v-.53c0-.673-.145-1.167-.437-1.485-.287-.323-.748-.484-1.383-.484-.714 0-1.52.218-2.422.656l-.398-.992c.422-.23.883-.41 1.383-.54a6.052 6.052 0 0 1 1.515-.195c1.021 0 1.776.227 2.266.68.495.453.742 1.18.742 2.18v5.843h-.961Zm-2.93-.914c.808 0 1.44-.221 1.899-.664.463-.442.695-1.062.695-1.86v-.773l-1.297.055c-1.031.037-1.776.198-2.234.484-.453.282-.68.722-.68 1.32 0 .47.14.826.422 1.071.287.245.685.367 1.195.367Zm17.672-5.5c0 .558-.161.982-.484 1.274-.318.286-.766.479-1.344.578v.07c.73.1 1.26.313 1.594.64.338.329.508.782.508 1.36 0 .797-.295 1.412-.883 1.844-.584.432-1.438.648-2.563.648h-3.773v-8.562h3.758c2.125 0 3.187.716 3.187 2.148Zm-1.023 3.836c0-.463-.177-.8-.532-1.008-.348-.213-.93-.32-1.742-.32H44.47v2.82h2.383c1.494 0 2.242-.497 2.242-1.492Zm-.242-3.71c0-.417-.162-.712-.485-.884-.317-.177-.802-.265-1.453-.265H44.47v2.414h2.195c.802 0 1.367-.099 1.695-.297.328-.198.493-.52.493-.969Zm8.695 6.288-.258-1.218h-.062c-.427.536-.855.9-1.282 1.093-.422.188-.95.282-1.586.282-.849 0-1.515-.22-2-.657-.479-.437-.718-1.06-.718-1.867 0-1.729 1.382-2.635 4.148-2.719l1.453-.047v-.53c0-.673-.146-1.167-.437-1.485-.287-.323-.748-.484-1.383-.484-.714 0-1.521.218-2.422.656l-.398-.992c.421-.23.882-.41 1.382-.54a6.052 6.052 0 0 1 1.516-.195c1.02 0 1.776.227 2.266.68.494.453.742 1.18.742 2.18v5.843h-.961Zm-2.93-.914c.808 0 1.44-.221 1.899-.664.463-.442.695-1.062.695-1.86v-.773l-1.297.055c-1.031.037-1.776.198-2.234.484-.453.282-.68.722-.68 1.32 0 .47.14.826.422 1.071.286.245.685.367 1.195.367Zm11.016-.336.242-.726.336-.922 2.32-5.648h1.649v8.546H69.03v-7.07l-.156.453-.453 1.195-2.211 5.422h-1.086l-2.21-5.437c-.277-.698-.467-1.242-.571-1.633v7.07h-1.157V47.96h1.586l2.243 5.43c.224.573.43 1.195.617 1.867Zm8.539-7.312v5.43l-.055 1.421-.023.446 4.633-7.297h1.617v8.562h-1.211v-5.234l.023-1.031.04-1.016-4.626 7.281h-1.617v-8.562h1.219Zm10.094 5.414h-.82l-.4-8.273h1.618l-.398 8.273Zm-1.36 2.32c0-.708.313-1.062.938-1.062.302 0 .534.09.695.273.167.182.25.445.25.79 0 .333-.083.593-.25.78-.167.183-.398.274-.695.274a.959.959 0 0 1-.672-.242c-.177-.167-.266-.438-.266-.813Z"/></g><defs><filter id="a" width="168.309" height="107" x=".096" y=".506" color-interpolation-filters="sRGB" filterUnits="userSpaceOnUse"><feFlood flood-opacity="0" result="BackgroundImageFix"/><feColorMatrix in="SourceAlpha" result="hardAlpha" values="0 0 0 0 0 0 0 0 0 0 0 0 0 0 0 0 0 0 127 0"/><feOffset dy="4"/><feGaussianBlur stdDeviation="2"/><feColorMatrix values="0 0 0 0 0 0 0 0 0 0 0 0 0 0 0 0 0 0 0.25 0"/><feBlend in2="BackgroundImageFix" result="effect1_dropShadow_1980_925"/><feBlend in="SourceGraphic" in2="effect1_dropShadow_1980_925" result="shape"/></filter></defs></svg>