<svg xmlns="http://www.w3.org/2000/svg" width="30" height="30" fill="none"><path fill="#666" fill-rule="evenodd" d="M0 15C0 6.716 6.716 0 15 0c8.284 0 15 6.716 15 15 0 8.284-6.716 15-15 15-8.284 0-15-6.716-15-15Z" clip-rule="evenodd"/><path fill="#fff" fill-rule="evenodd" d="M15 7c-2.173 0-2.445.01-3.298.048-.852.039-1.433.174-1.942.372a3.922 3.922 0 0 0-1.417.923c-.445.444-.719.89-.923 1.417-.198.509-.333 1.09-.372 1.942C7.01 12.555 7 12.827 7 15s.01 2.445.048 3.298c.039.852.174 1.433.372 1.942.204.526.478.973.923 1.417.444.445.89.719 1.417.923.509.198 1.09.333 1.942.372.853.039 1.125.048 3.298.048s2.445-.01 3.298-.048c.852-.039 1.433-.174 1.942-.372a3.922 3.922 0 0 0 1.417-.923c.445-.445.719-.89.923-1.417.198-.509.333-1.09.372-1.942.039-.853.048-1.125.048-3.298s-.01-2.445-.048-3.298c-.039-.852-.174-1.433-.372-1.942a3.922 3.922 0 0 0-.923-1.417 3.922 3.922 0 0 0-1.417-.923c-.509-.198-1.09-.333-1.942-.372C17.445 7.01 17.173 7 15 7Zm0 1.441c2.136 0 2.39.009 3.233.047.78.036 1.203.166 1.485.276.374.145.64.318.92.598.28.28.453.546.598.92.11.282.24.705.276 1.485.038.844.047 1.097.047 3.233s-.009 2.39-.047 3.233c-.036.78-.166 1.203-.276 1.485-.145.374-.318.64-.598.92-.28.28-.546.453-.92.598-.282.11-.705.24-1.485.276-.844.038-1.097.047-3.233.047s-2.39-.009-3.233-.047c-.78-.036-1.203-.166-1.485-.276a2.48 2.48 0 0 1-.92-.598 2.479 2.479 0 0 1-.598-.92c-.11-.282-.24-.705-.276-1.485-.038-.844-.047-1.097-.047-3.233s.009-2.39.047-3.233c.036-.78.166-1.203.276-1.485.145-.374.318-.64.598-.92.28-.28.546-.453.92-.598.282-.11.705-.24 1.485-.276.844-.038 1.097-.047 3.233-.047ZM10.892 15a4.108 4.108 0 1 1 8.216 0 4.108 4.108 0 0 1-8.216 0ZM15 17.667a2.667 2.667 0 1 1 0-5.334 2.667 2.667 0 0 1 0 5.334Zm4.27-5.977a.96.96 0 1 0 0-1.92.96.96 0 0 0 0 1.92Z" clip-rule="evenodd"/></svg>