<svg xmlns="http://www.w3.org/2000/svg" width="30" height="30" fill="none"><path fill="#666" fill-rule="evenodd" d="M0 15C0 6.716 6.716 0 15 0c8.284 0 15 6.716 15 15 0 8.284-6.716 15-15 15-8.284 0-15-6.716-15-15Z" clip-rule="evenodd"/><path fill="#fff" fill-rule="evenodd" d="M21.1 12.29c.006.126.01.253.01.382 0 3.904-2.973 8.406-8.407 8.406a8.365 8.365 0 0 1-4.53-1.328 5.925 5.925 0 0 0 4.375-1.225 2.959 2.959 0 0 1-2.76-2.05c.18.035.367.052.557.052.269 0 .53-.035.778-.103a2.958 2.958 0 0 1-2.371-2.897v-.037c.399.221.856.354 1.34.37a2.95 2.95 0 0 1-1.314-2.46c0-.54.145-1.048.399-1.484a8.385 8.385 0 0 0 6.089 3.086 2.995 2.995 0 0 1-.075-.674 2.953 2.953 0 0 1 5.109-2.02 5.844 5.844 0 0 0 1.877-.718 2.957 2.957 0 0 1-1.3 1.635 5.882 5.882 0 0 0 1.699-.465 6.04 6.04 0 0 1-1.475 1.53Z" clip-rule="evenodd"/></svg>